{
    "asset" : {
        "generator" : "Khronos glTF Blender I/O v1.2.75",
        "version" : "2.0"
    },
    "scene" : 0,
    "scenes" : [
        {
            "name" : "Scene",
            "nodes" : [
                0,
                1,
                2,
                3
            ]
        }
    ],
    "nodes" : [
        {
            "name" : "Light",
            "rotation" : [
                0.16907575726509094,
                0.7558803558349609,
                -0.27217137813568115,
                0.570947527885437
            ],
            "translation" : [
                4.076245307922363,
                5.903861999511719,
                -1.0054539442062378
            ]
        },
        {
            "name" : "Camera",
            "rotation" : [
                0.483536034822464,
                0.33687159419059753,
                -0.20870360732078552,
                0.7804827094078064
            ],
            "translation" : [
                7.358891487121582,
                4.958309173583984,
                6.925790786743164
            ]
        },
        {
            "mesh" : 0,
            "name" : "Cone",
            "rotation" : [
                0,
                0,
                0.7071067690849304,
                0.7071067690849304
            ]
        },
        {
            "mesh" : 1,
            "name" : "Cone.001",
            "rotation" : [
                0,
                0,
                0.7071067690849304,
                0.7071067690849304
            ]
        }
    ],
    "animations" : [
        {
            "channels" : [
                {
                    "sampler" : 0,
                    "target" : {
                        "node" : 2,
                        "path" : "translation"
                    }
                },
                {
                    "sampler" : 1,
                    "target" : {
                        "node" : 2,
                        "path" : "rotation"
                    }
                },
                {
                    "sampler" : 2,
                    "target" : {
                        "node" : 3,
                        "path" : "translation"
                    }
                },
                {
                    "sampler" : 3,
                    "target" : {
                        "node" : 3,
                        "path" : "rotation"
                    }
                }
            ],
            "name" : "Animation",
            "samplers" : [
                {
                    "input" : 7,
                    "interpolation" : "LINEAR",
                    "output" : 8
                },
                {
                    "input" : 7,
                    "interpolation" : "LINEAR",
                    "output" : 9
                },
                {
                    "input" : 7,
                    "interpolation" : "LINEAR",
                    "output" : 10
                },
                {
                    "input" : 7,
                    "interpolation" : "LINEAR",
                    "output" : 11
                }
            ]
        }
    ],
    "meshes" : [
        {
            "name" : "Cone.003",
            "primitives" : [
                {
                    "attributes" : {
                        "POSITION" : 0,
                        "NORMAL" : 1,
                        "TEXCOORD_0" : 2
                    },
                    "indices" : 3
                }
            ]
        },
        {
            "name" : "Cone.004",
            "primitives" : [
                {
                    "attributes" : {
                        "POSITION" : 4,
                        "NORMAL" : 5,
                        "TEXCOORD_0" : 6
                    },
                    "indices" : 3
                }
            ]
        }
    ],
    "accessors" : [
        {
            "bufferView" : 0,
            "componentType" : 5126,
            "count" : 20500,
            "max" : [
                1.0000001192092896,
                3,
                1.0000017881393433
            ],
            "min" : [
                -1,
                -9.5367431640625e-07,
                -1
            ],
            "type" : "VEC3"
        },
        {
            "bufferView" : 1,
            "componentType" : 5126,
            "count" : 20500,
            "type" : "VEC3"
        },
        {
            "bufferView" : 2,
            "componentType" : 5126,
            "count" : 20500,
            "type" : "VEC2"
        },
        {
            "bufferView" : 3,
            "componentType" : 5123,
            "count" : 30888,
            "type" : "SCALAR"
        },
        {
            "bufferView" : 4,
            "componentType" : 5126,
            "count" : 20500,
            "max" : [
                1.0000001192092896,
                0,
                1.0000017881393433
            ],
            "min" : [
                -1,
                -3.0000009536743164,
                -1
            ],
            "type" : "VEC3"
        },
        {
            "bufferView" : 5,
            "componentType" : 5126,
            "count" : 20500,
            "type" : "VEC3"
        },
        {
            "bufferView" : 6,
            "componentType" : 5126,
            "count" : 20500,
            "type" : "VEC2"
        },
        {
            "bufferView" : 7,
            "componentType" : 5126,
            "count" : 241,
            "max" : [
                10
            ],
            "min" : [
                0
            ],
            "type" : "SCALAR"
        },
        {
            "bufferView" : 8,
            "componentType" : 5126,
            "count" : 241,
            "type" : "VEC3"
        },
        {
            "bufferView" : 9,
            "componentType" : 5126,
            "count" : 241,
            "type" : "VEC4"
        },
        {
            "bufferView" : 10,
            "componentType" : 5126,
            "count" : 241,
            "type" : "VEC3"
        },
        {
            "bufferView" : 11,
            "componentType" : 5126,
            "count" : 241,
            "type" : "VEC4"
        }
    ],
    "bufferViews" : [
        {
            "buffer" : 0,
            "byteLength" : 246000,
            "byteOffset" : 0
        },
        {
            "buffer" : 0,
            "byteLength" : 246000,
            "byteOffset" : 246000
        },
        {
            "buffer" : 0,
            "byteLength" : 164000,
            "byteOffset" : 492000
        },
        {
            "buffer" : 0,
            "byteLength" : 61776,
            "byteOffset" : 656000
        },
        {
            "buffer" : 0,
            "byteLength" : 246000,
            "byteOffset" : 717776
        },
        {
            "buffer" : 0,
            "byteLength" : 246000,
            "byteOffset" : 963776
        },
        {
            "buffer" : 0,
            "byteLength" : 164000,
            "byteOffset" : 1209776
        },
        {
            "buffer" : 0,
            "byteLength" : 964,
            "byteOffset" : 1373776
        },
        {
            "buffer" : 0,
            "byteLength" : 2892,
            "byteOffset" : 1374740
        },
        {
            "buffer" : 0,
            "byteLength" : 3856,
            "byteOffset" : 1377632
        },
        {
            "buffer" : 0,
            "byteLength" : 2892,
            "byteOffset" : 1381488
        },
        {
            "buffer" : 0,
            "byteLength" : 3856,
            "byteOffset" : 1384380
        }
    ],
    "buffers" : [
        {
            "byteLength" : 1388236,
            "uri" : "data:application/octet-stream;base64,"
        }
    ]
}
