{
    "asset" : {
        "generator" : "Khronos glTF Blender I/O v1.1.45",
        "version" : "2.0"
    },
    "scene" : 0,
    "scenes" : [
        {
            "name" : "Scene",
            "nodes" : [
                0,
                1,
                2,
                3
            ]
        }
    ],
    "nodes" : [
        {
            "mesh" : 0,
            "name" : "iiiEx_Fiield"
        },
        {
            "mesh" : 1,
            "name" : "Bridge",
            "translation" : [
                -2.579598903656006,
                0.7546845078468323,
                2.194253444671631
            ]
        },
        {
            "mesh" : 2,
            "name" : "Stair",
            "rotation" : [
                0.014647183008491993,
                -0.035361431539058685,
                -0.38240301609039307,
                0.9232025742530823
            ],
            "scale" : [
                1.3057763576507568,
                1.3057763576507568,
                0.6194894909858704
            ],
            "translation" : [
                3.63985013961792,
                -1.0429582595825195,
                4.745696067810059
            ]
        },
        {
            "mesh" : 3,
            "name" : "Ladder",
            "rotation" : [
                0.5596528649330139,
                0.18032564222812653,
                -0.12631604075431824,
                0.7989465594291687
            ],
            "scale" : [
                0.3582419455051422,
                1,
                1.048100471496582
            ],
            "translation" : [
                2.681534767150879,
                0.9720615744590759,
                -4.291579246520996
            ]
        }
    ],
    "materials" : [
        {
            "doubleSided" : true,
            "emissiveFactor" : [
                0,
                0,
                0
            ],
            "name" : "iiiEx_Field",
            "pbrMetallicRoughness" : {
                "baseColorFactor" : [
                    1,
                    1,
                    1,
                    1
                ],
                "metallicFactor" : 0,
                "roughnessFactor" : 0.5
            }
        },
        {
            "doubleSided" : true,
            "emissiveFactor" : [
                0,
                0,
                0
            ],
            "name" : "Bridge",
            "pbrMetallicRoughness" : {
                "baseColorFactor" : [
                    0,
                    0,
                    1,
                    1
                ],
                "metallicFactor" : 0,
                "roughnessFactor" : 0.5
            }
        },
        {
            "doubleSided" : true,
            "emissiveFactor" : [
                0,
                0,
                0
            ],
            "name" : "Stair",
            "pbrMetallicRoughness" : {
                "baseColorFactor" : [
                    1,
                    0,
                    0,
                    1
                ],
                "metallicFactor" : 0,
                "roughnessFactor" : 0.5
            }
        },
        {
            "doubleSided" : true,
            "emissiveFactor" : [
                0,
                0,
                0
            ],
            "name" : "Ladder",
            "pbrMetallicRoughness" : {
                "baseColorFactor" : [
                    0,
                    1,
                    0,
                    1
                ],
                "metallicFactor" : 0,
                "roughnessFactor" : 0.5
            }
        }
    ],
    "meshes" : [
        {
            "name" : "Sphere",
            "primitives" : [
                {
                    "attributes" : {
                        "POSITION" : 0,
                        "NORMAL" : 1,
                        "TEXCOORD_0" : 2
                    },
                    "indices" : 3,
                    "material" : 0
                }
            ]
        },
        {
            "name" : "Plane",
            "primitives" : [
                {
                    "attributes" : {
                        "POSITION" : 4,
                        "NORMAL" : 5,
                        "TEXCOORD_0" : 6
                    },
                    "indices" : 7,
                    "material" : 1
                }
            ]
        },
        {
            "name" : "Plane.002",
            "primitives" : [
                {
                    "attributes" : {
                        "POSITION" : 8,
                        "NORMAL" : 9,
                        "TEXCOORD_0" : 10
                    },
                    "indices" : 11,
                    "material" : 2
                }
            ]
        },
        {
            "name" : "Plane.003",
            "primitives" : [
                {
                    "attributes" : {
                        "POSITION" : 12,
                        "NORMAL" : 13,
                        "TEXCOORD_0" : 14
                    },
                    "indices" : 11,
                    "material" : 3
                }
            ]
        }
    ],
    "accessors" : [
        {
            "bufferView" : 0,
            "componentType" : 5126,
            "count" : 608,
            "max" : [
                9.945223808288574,
                10,
                10.000008583068848
            ],
            "min" : [
                -9.949004173278809,
                -1.9508992433547974,
                -9.807852745056152
            ],
            "type" : "VEC3"
        },
        {
            "bufferView" : 1,
            "componentType" : 5126,
            "count" : 608,
            "type" : "VEC3"
        },
        {
            "bufferView" : 2,
            "componentType" : 5126,
            "count" : 608,
            "type" : "VEC2"
        },
        {
            "bufferView" : 3,
            "componentType" : 5123,
            "count" : 2760,
            "type" : "SCALAR"
        },
        {
            "bufferView" : 4,
            "componentType" : 5126,
            "count" : 4,
            "max" : [
                0.09836852550506592,
                -0.7748900055885315,
                0.34975552558898926
            ],
            "min" : [
                -2.7361724376678467,
                -0.7748900055885315,
                -1.8031448125839233
            ],
            "type" : "VEC3"
        },
        {
            "bufferView" : 5,
            "componentType" : 5126,
            "count" : 4,
            "type" : "VEC3"
        },
        {
            "bufferView" : 6,
            "componentType" : 5126,
            "count" : 4,
            "type" : "VEC2"
        },
        {
            "bufferView" : 7,
            "componentType" : 5123,
            "count" : 6,
            "type" : "SCALAR"
        },
        {
            "bufferView" : 8,
            "componentType" : 5126,
            "count" : 4,
            "max" : [
                1,
                0,
                1
            ],
            "min" : [
                -1,
                0,
                -1
            ],
            "type" : "VEC3"
        },
        {
            "bufferView" : 9,
            "componentType" : 5126,
            "count" : 4,
            "type" : "VEC3"
        },
        {
            "bufferView" : 10,
            "componentType" : 5126,
            "count" : 4,
            "type" : "VEC2"
        },
        {
            "bufferView" : 11,
            "componentType" : 5123,
            "count" : 6,
            "type" : "SCALAR"
        },
        {
            "bufferView" : 12,
            "componentType" : 5126,
            "count" : 4,
            "max" : [
                1,
                0,
                1
            ],
            "min" : [
                -1,
                0,
                -1
            ],
            "type" : "VEC3"
        },
        {
            "bufferView" : 13,
            "componentType" : 5126,
            "count" : 4,
            "type" : "VEC3"
        },
        {
            "bufferView" : 14,
            "componentType" : 5126,
            "count" : 4,
            "type" : "VEC2"
        }
    ],
    "bufferViews" : [
        {
            "buffer" : 0,
            "byteLength" : 7296,
            "byteOffset" : 0
        },
        {
            "buffer" : 0,
            "byteLength" : 7296,
            "byteOffset" : 7296
        },
        {
            "buffer" : 0,
            "byteLength" : 4864,
            "byteOffset" : 14592
        },
        {
            "buffer" : 0,
            "byteLength" : 5520,
            "byteOffset" : 19456
        },
        {
            "buffer" : 0,
            "byteLength" : 48,
            "byteOffset" : 24976
        },
        {
            "buffer" : 0,
            "byteLength" : 48,
            "byteOffset" : 25024
        },
        {
            "buffer" : 0,
            "byteLength" : 32,
            "byteOffset" : 25072
        },
        {
            "buffer" : 0,
            "byteLength" : 12,
            "byteOffset" : 25104
        },
        {
            "buffer" : 0,
            "byteLength" : 48,
            "byteOffset" : 25116
        },
        {
            "buffer" : 0,
            "byteLength" : 48,
            "byteOffset" : 25164
        },
        {
            "buffer" : 0,
            "byteLength" : 32,
            "byteOffset" : 25212
        },
        {
            "buffer" : 0,
            "byteLength" : 12,
            "byteOffset" : 25244
        },
        {
            "buffer" : 0,
            "byteLength" : 48,
            "byteOffset" : 25256
        },
        {
            "buffer" : 0,
            "byteLength" : 48,
            "byteOffset" : 25304
        },
        {
            "buffer" : 0,
            "byteLength" : 32,
            "byteOffset" : 25352
        }
    ],
    "buffers" : [
        {
            "byteLength" : 25384,
            "uri" : "data:application/octet-stream;base64,"
        }
    ]
}
